<svg width="105" height="29" viewBox="0 0 105 29" fill="none" xmlns="http://www.w3.org/2000/svg">
<path fill-rule="evenodd" clip-rule="evenodd" d="M19.5268 0L31.3387 5.42071L35.75 13.735L31.6087 20.0423L19.2455 13.2457L11.4442 16.8389L9.45275 15.6356L9.826 13.2457L19.4247 8.84647L30.3106 14.831L31.17 13.5221L28.4749 8.44249L19.4943 4.32114L9.27844 8.82534L4.85975 12.7861L4.27921 16.5224L11.4202 21.4793L19.5971 17.7235L25.1796 20.8363L23.2537 24.2751L19.424 22.1397L11.0196 26L0 18.3508L1.17411 10.7943L7.10781 5.47556L19.5268 0Z" fill="#9474E5"/>
<path d="M48.4457 23.3221C46.1912 23.3221 44.3394 22.5974 42.8901 21.175C41.4677 19.7526 40.743 17.9275 40.743 15.6999C40.743 13.4724 41.4677 11.6473 42.9169 10.2249C44.3662 8.80247 46.2449 8.07783 48.553 8.07783C51.5321 8.07783 54.1354 9.52711 55.3163 12.0768L52.4714 13.6066C51.6126 12.1841 50.217 11.2984 48.6067 11.2984C47.3453 11.2984 46.2986 11.7279 45.4666 12.5599C44.6346 13.3918 44.232 14.4385 44.232 15.6999C44.232 16.9614 44.6346 18.0081 45.4397 18.84C46.2449 19.672 47.2648 20.1014 48.4993 20.1014C50.1096 20.1014 51.6931 19.1889 52.4177 17.8202L55.2626 19.4842C54.0012 21.8191 51.4247 23.3221 48.4457 23.3221ZM59.545 23H56.056V2.60279H59.4645V10.3054C60.2965 8.99034 62.0142 8.051 64.0807 8.051C65.6642 8.051 66.9793 8.58776 68.0796 9.63446C69.18 10.6812 69.7436 12.1573 69.7436 14.1165V23H66.2546V15.0558C66.2546 12.6135 64.9932 11.2448 63.0609 11.2448C60.9943 11.2448 59.545 12.8282 59.545 15.1095V23ZM70.7029 15.6999C70.7029 13.5529 71.4275 11.7547 72.8768 10.2786C74.3529 8.80247 76.2048 8.051 78.486 8.051C80.7673 8.051 82.6191 8.80247 84.0684 10.2786C85.5445 11.7547 86.2692 13.5529 86.2692 15.6999C86.2692 17.8739 85.5445 19.6989 84.0684 21.175C82.6191 22.6511 80.7673 23.3757 78.486 23.3757C76.2048 23.3757 74.3529 22.6511 72.8768 21.175C71.4275 19.6989 70.7029 17.8739 70.7029 15.6999ZM82.7533 15.6999C82.7533 14.4922 82.3508 13.4455 81.5188 12.5867C80.6868 11.7279 79.6938 11.2984 78.486 11.2984C77.2783 11.2984 76.2853 11.7279 75.4533 12.5867C74.6213 13.4455 74.2187 14.4922 74.2187 15.6999C74.2187 16.9345 74.6213 17.9812 75.4533 18.84C76.2853 19.6989 77.2783 20.1283 78.486 20.1283C79.6938 20.1283 80.6868 19.6989 81.5188 18.84C82.3508 17.9812 82.7533 16.9345 82.7533 15.6999ZM95.645 8.07783C97.7116 8.07783 99.4292 8.82931 100.798 10.3054C102.167 11.7815 102.838 13.5797 102.838 15.6999C102.838 17.847 102.14 19.672 100.771 21.1481C99.4024 22.6243 97.6847 23.3489 95.6182 23.3489C93.7663 23.3489 92.1829 22.6243 90.9214 21.175V28.985H87.4056V8.42673H90.8946V10.3591C92.156 8.82931 93.7395 8.07783 95.645 8.07783ZM90.8409 15.7268C90.8409 16.9882 91.2435 18.0349 92.0218 18.8937C92.8001 19.7257 93.82 20.1551 95.0814 20.1551C96.3428 20.1551 97.3627 19.7257 98.141 18.8937C98.9193 18.0349 99.3219 16.9882 99.3219 15.7268C99.3219 14.4654 98.9193 13.4187 98.141 12.5867C97.3627 11.7279 96.3428 11.2984 95.0814 11.2984C93.82 11.2984 92.8001 11.7279 92.0218 12.5867C91.2435 13.4455 90.8409 14.4922 90.8409 15.7268Z" fill="#4D2B87"/>
</svg>
